<svg id="visual" viewBox="0 0 900 600" width="900" height="600" xmlns="http://www.w3.org/2000/svg" xmlns:xlink="http://www.w3.org/1999/xlink" version="1.1"><rect x="0" y="0" width="900" height="600" fill="#739eb3"></rect><path d="M0 154L21.5 143.7C43 133.3 86 112.7 128.8 113.8C171.7 115 214.3 138 257.2 155.7C300 173.3 343 185.7 385.8 191C428.7 196.3 471.3 194.7 514.2 190.7C557 186.7 600 180.3 642.8 180.2C685.7 180 728.3 186 771.2 188C814 190 857 188 878.5 187L900 186L900 0L878.5 0C857 0 814 0 771.2 0C728.3 0 685.7 0 642.8 0C600 0 557 0 514.2 0C471.3 0 428.7 0 385.8 0C343 0 300 0 257.2 0C214.3 0 171.7 0 128.8 0C86 0 43 0 21.5 0L0 0Z" fill="#8ea6c9" stroke-linecap="round" stroke-linejoin="miter"></path></svg>